<?xml version="1.0" standalone="no"?>
<!DOCTYPE svg PUBLIC "-//W3C//DTD SVG 20010904//EN"
 "http://www.w3.org/TR/2001/REC-SVG-20010904/DTD/svg10.dtd">
<svg version="1.0" xmlns="http://www.w3.org/2000/svg"
 width="100.000000pt" height="90.000000pt" viewBox="0 0 100.000000 90.000000"
 preserveAspectRatio="xMidYMid meet">
<metadata>
Created by potrace 1.15, written by Peter Selinger 2001-2017
</metadata>
<g transform="translate(0.000000,90.000000) scale(0.100000,-0.100000)"
fill="#000000" stroke="none">
<path d="M570 747 c0 -106 4 -157 12 -165 7 -7 38 -12 71 -12 50 0 58 2 55 18
-2 13 -15 18 -50 20 l-47 3 -3 130 -3 129 183 0 182 0 0 -130 0 -130 -108 0
-109 0 -57 -62 c-50 -55 -64 -88 -38 -88 4 0 29 25 55 55 l48 54 117 3 117 3
3 163 2 162 -215 0 -215 0 0 -153z"/>
<path d="M172 671 c-16 -9 -32 -58 -32 -94 0 -24 -3 -28 -12 -19 -19 19 -53
14 -76 -11 -25 -27 -52 -142 -52 -226 0 -66 2 -69 118 -145 l72 -47 0 -65 c0
-57 2 -64 20 -64 18 0 20 7 20 68 0 37 -4 72 -8 78 -4 6 -49 39 -100 73 -55
38 -92 69 -92 79 0 35 39 215 48 224 22 22 28 -4 20 -84 -4 -46 -5 -90 -2 -99
9 -30 101 -49 240 -48 130 0 217 -12 249 -35 13 -9 19 -37 25 -117 5 -57 9
-112 10 -121 0 -10 8 -18 18 -18 16 0 17 10 14 112 -2 62 -9 124 -15 138 -27
58 -175 96 -324 84 -52 -4 -100 -2 -132 6 l-51 12 0 49 c0 55 6 61 20 24 5
-14 17 -28 25 -31 22 -9 75 15 75 34 0 9 7 5 21 -12 46 -58 122 -72 180 -33
43 29 62 67 67 140 8 110 -34 157 -142 157 -61 0 -68 -2 -99 -34 -29 -29 -33
-31 -30 -12 4 18 -2 24 -30 33 -19 6 -40 8 -45 4z m285 -56 c25 -28 29 -72 13
-140 -11 -50 -41 -75 -89 -75 -48 0 -78 22 -91 68 -23 84 -6 151 44 173 37 16
99 3 123 -26z"/>
</g>
</svg>
