<svg xmlns="http://www.w3.org/2000/svg" width="121.032" height="71.981" viewBox="0 0 121.032 71.981">
  <g id="f-tale" transform="translate(-420.535 -220.752)">
    <path id="Path_1" data-name="Path 1" d="M507.941,264.6l9.61-11.757h21.625a1.344,1.344,0,0,0,1.321-1.355V223.179c0-1.008-.783-1.358-1.666-1.358H503.066c-.882,0-1.666.35-1.666,1.358v28.308a1.342,1.342,0,0,0,1.319,1.355h9.159m-1.673,39.8c-.773-8.865-2.972-18.6-5.721-22.284-4.658-6.259-42.255-6.259-46.913,0-2.749,3.688-4.95,13.419-5.723,22.284M468.135,239.1c.607-6.678,6.415-10.016,12.892-10.016s12.28,3.339,12.89,10.016c.317,3.487-.444,11.734-2.127,14.853a13.9,13.9,0,0,1-8.7,6.251,10.252,10.252,0,0,1-4.135,0,13.9,13.9,0,0,1-8.7-6.251c-1.683-3.119-2.444-11.367-2.127-14.853ZM464.216,264.7a4.425,4.425,0,0,0-2.481-3.249l-9.925-3.867L446.191,268.6h-.06l-.431-9.81h-3.329l-.434,9.81h-.055l-5.622-11.017-9.925,3.867a4.445,4.445,0,0,0-2.484,3.249l-2.258,16.114M433.148,237.1c1-11,20.1-11,21.109,0,.258,2.851-.367,9.6-1.743,12.16a11.389,11.389,0,0,1-7.119,5.115,9.333,9.333,0,0,1-3.388,0,11.383,11.383,0,0,1-7.119-5.115c-1.376-2.558-2-9.309-1.74-12.16Zm79.072-.49h3.138m4.023,0h3.138m4.021,0h3.136" fill="none" stroke="#000" stroke-miterlimit="22.926" stroke-width="2.139" fill-rule="evenodd"/>
  </g>
</svg>
