<svg xmlns="http://www.w3.org/2000/svg" width="40" height="40" viewBox="0 0 40 40">
  <g id="android" transform="translate(-1340 -71)">
    <g id="android-hand-drawn-logo-outline" transform="translate(1350 81)">
      <path id="Forma_1" data-name="Forma 1" d="M10.023,19.332a11.894,11.894,0,0,1,.07-2.8c-.23,0-.46,0-.69.014.071,1.188.146,2.649-.694,3.613a1.91,1.91,0,0,1-2.017.649,1.623,1.623,0,0,1-.824-1.5,15.7,15.7,0,0,1-.026-2.879,2.047,2.047,0,0,1-2.226-1.694.485.485,0,0,1-.008-.083.478.478,0,0,1-.009-.116c.1-2.3-.02-4.607.155-6.906a.461.461,0,0,1,.107-.27A.425.425,0,0,1,4.3,7.015c3.645,0,7.29.037,10.935.038a.453.453,0,0,1,.426.615c-.007,2.318-.084,4.632-.271,6.943a.723.723,0,0,1,0,.077,1.84,1.84,0,0,1-1.779,1.881c.068.582.084,1.187.112,1.772a2.231,2.231,0,0,1-1.274,2.467,1.72,1.72,0,0,1-.614.116A1.94,1.94,0,0,1,10.023,19.332Zm1.022-3.225c-.023,1.177-.824,3.475.713,3.946,1.582-.361,1.057-2.459.9-3.711a.432.432,0,0,1,.369-.7c.752.065,1.359-.136,1.435-.959,0,0,0,0,0-.007a.448.448,0,0,1,0-.069c.179-2.209.256-4.423.268-6.638-3.353,0-6.705-.032-10.059-.036-.143,2.2-.04,4.4-.136,6.6,0,.007,0,.013,0,.02a1.106,1.106,0,0,0,.539.851,1.821,1.821,0,0,0,1.085.066.5.5,0,0,1,.18,0,.448.448,0,0,1,.447.443c.029,1.055-.652,3.417.543,4.036.013,0,.025-.006.039-.008,1.64-.169,1.146-2.735,1.086-3.836a.411.411,0,0,1,.445-.444.682.682,0,0,1,.1-.016,3.885,3.885,0,0,1,.659.026,2.9,2.9,0,0,0,.826,0,.548.548,0,0,1,.115-.012A.427.427,0,0,1,11.045,16.107ZM.216,13.191a.579.579,0,0,1,0-.064s0-.008,0-.013c-.1-1.383-.149-2.772-.137-4.159C.086,8.049,0,6.967,1,6.527c.619-.273,1.606-.381,1.878.442.678,2.053.423,4.263.249,6.376,0,.01,0,.018,0,.027a.534.534,0,0,1-.012.1,1.406,1.406,0,0,1-1.385,1.207A1.517,1.517,0,0,1,.216,13.191Zm1-5.779c-.391.324-.211,1.184-.2,1.611.043,1.368.011,2.725.125,4.092a.5.5,0,0,1,0,.069s0,.005,0,.008a.748.748,0,0,0,.174.49.758.758,0,0,0,.556.064l.02,0a.4.4,0,0,0,.036-.019l.028-.019a.865.865,0,0,0,.09-.087c-.024.035-.02.03.012-.015a1.2,1.2,0,0,0,.07-.12l.011-.023a1.918,1.918,0,0,0,.058-.2,25.519,25.519,0,0,0,.163-3.8c-.022-.341-.093-2.22-.757-2.22A.63.63,0,0,0,1.22,7.412Zm15.5,6.8a1.575,1.575,0,0,1-.593-1.255.5.5,0,0,1,0-.064.123.123,0,0,1,0-.013,52.9,52.9,0,0,1-.116-5.333.459.459,0,0,1,.048-.2.565.565,0,0,1,.008-.114,1.269,1.269,0,0,1,1.379-1.067.536.536,0,0,1,.161.035,1.548,1.548,0,0,1,.927.22.5.5,0,0,1,.135.123.464.464,0,0,1,.119.19c.678,2.053.423,4.263.249,6.376a.273.273,0,0,1-.005.027.516.516,0,0,1-.011.1,1.573,1.573,0,0,1-.835,1.119.6.6,0,0,1-.148.046h-.006L18,14.409a2.738,2.738,0,0,1-.458.042A1.375,1.375,0,0,1,16.718,14.217ZM17.111,7.2c-.379.362-.2,1.244-.181,1.7.023.668-.347,4.653.684,4.636.272,0,.4-.269.473-.517.024-.087.041-.172.054-.242a15.51,15.51,0,0,0,.127-3.6c-.019-.312-.127-2.176-.757-2.176A.613.613,0,0,0,17.111,7.2ZM9.341,6.5c-1-.03-1.994-.063-2.991-.088-.485-.012-.972-.029-1.457-.032a3.167,3.167,0,0,0-.316.023,1.143,1.143,0,0,1-.768-.084c-.6-.467.369-2.363.661-2.858.1-.17,1.48-1.9,1.586-1.764Q5.7,1.237,5.369.764a.459.459,0,0,1,.167-.63A.477.477,0,0,1,6.173.3c.215.3.432.605.66.9A6.306,6.306,0,0,1,9.24.474a5.585,5.585,0,0,1,3.712.874A11.06,11.06,0,0,0,13.857.4a.47.47,0,0,1,.658,0,.466.466,0,0,1,0,.651,10.846,10.846,0,0,1-.837.885,7.452,7.452,0,0,1,2.042,4,.454.454,0,0,1-.057.333.429.429,0,0,1-.43.327l-.674,0C12.82,6.6,11.08,6.549,9.341,6.5Zm-.1-5.1A5.186,5.186,0,0,0,4.679,5.453c3.344.056,6.685.225,10.03.22-.613-2.382-2.2-4.326-4.756-4.326A5.448,5.448,0,0,0,9.24,1.394Zm-2.15,1.9a.46.46,0,0,1,0,.921A.46.46,0,0,1,7.09,3.294ZM12.4,3.255a.46.46,0,0,1,0,.921A.46.46,0,0,1,12.4,3.255Z"/>
    </g>
    <path id="Color_Overlay" data-name="Color Overlay" d="M1360.023,100.332a11.857,11.857,0,0,1,.07-2.8c-.23,0-.461,0-.69.014.07,1.187.146,2.649-.695,3.613a1.909,1.909,0,0,1-2.016.65,1.623,1.623,0,0,1-.824-1.5,15.72,15.72,0,0,1-.025-2.879,2.048,2.048,0,0,1-2.227-1.694.568.568,0,0,1-.007-.084.483.483,0,0,1-.009-.116c.1-2.3-.021-4.606.155-6.906a.463.463,0,0,1,.107-.27.426.426,0,0,1,.436-.344c3.646,0,7.291.037,10.936.039a.454.454,0,0,1,.426.615c-.007,2.318-.084,4.632-.271,6.944,0,.027,0,.05,0,.076a1.839,1.839,0,0,1-1.779,1.881c.068.582.085,1.187.113,1.772a2.231,2.231,0,0,1-1.274,2.468,1.735,1.735,0,0,1-.614.115A1.939,1.939,0,0,1,1360.023,100.332Zm1.021-3.225c-.022,1.177-.824,3.475.713,3.946,1.582-.36,1.057-2.459.9-3.711a.432.432,0,0,1,.369-.7c.751.066,1.358-.136,1.435-.958,0,0,0-.005,0-.008a.447.447,0,0,1,0-.069c.179-2.21.256-4.423.267-6.638-3.353,0-6.705-.031-10.058-.035-.143,2.2-.041,4.4-.136,6.6a.157.157,0,0,0,0,.02,1.1,1.1,0,0,0,.539.851,1.82,1.82,0,0,0,1.084.067.507.507,0,0,1,.181,0,.449.449,0,0,1,.447.443c.029,1.055-.652,3.416.543,4.036.014,0,.025-.006.039-.007,1.64-.169,1.146-2.735,1.086-3.837a.412.412,0,0,1,.445-.445.7.7,0,0,1,.1-.016,3.86,3.86,0,0,1,.659.026,2.888,2.888,0,0,0,.826,0,.549.549,0,0,1,.114-.012A.426.426,0,0,1,1361.045,97.107Zm-10.83-2.916c0-.022,0-.042,0-.064a.058.058,0,0,0,0-.013q-.155-2.075-.137-4.159c.007-.906-.077-1.989.919-2.429.618-.273,1.606-.382,1.877.443.679,2.053.423,4.263.249,6.376,0,.009,0,.018,0,.027a.577.577,0,0,1-.012.1,1.407,1.407,0,0,1-1.385,1.206A1.518,1.518,0,0,1,1350.215,94.191Zm1-5.779c-.391.324-.211,1.184-.2,1.611.043,1.367.011,2.724.125,4.091a.418.418,0,0,1,0,.068.03.03,0,0,1,0,.008.746.746,0,0,0,.174.491.761.761,0,0,0,.555.064l.02,0a.282.282,0,0,0,.037-.019l.029-.019a1.047,1.047,0,0,0,.089-.087c-.023.034-.02.03.012-.015a1.064,1.064,0,0,0,.07-.121.213.213,0,0,0,.011-.022,1.843,1.843,0,0,0,.058-.205,25.377,25.377,0,0,0,.163-3.8c-.022-.341-.093-2.22-.757-2.22A.631.631,0,0,0,1351.219,88.412Zm15.5,6.8a1.571,1.571,0,0,1-.593-1.255.513.513,0,0,1,0-.065s0-.008,0-.013a52.685,52.685,0,0,1-.116-5.332.463.463,0,0,1,.047-.2.538.538,0,0,1,.008-.113,1.27,1.27,0,0,1,1.38-1.067.573.573,0,0,1,.161.035,1.547,1.547,0,0,1,.926.22.507.507,0,0,1,.135.123.457.457,0,0,1,.118.191c.679,2.053.423,4.263.249,6.376,0,.01,0,.018,0,.027a.49.49,0,0,1-.012.1,1.572,1.572,0,0,1-.834,1.119.566.566,0,0,1-.149.046h-.006l-.033.005a2.779,2.779,0,0,1-.458.042A1.372,1.372,0,0,1,1366.718,95.216Zm.392-7.014c-.38.362-.2,1.244-.181,1.7.023.669-.347,4.653.684,4.637.273,0,.4-.27.473-.518a2.33,2.33,0,0,0,.055-.242,15.488,15.488,0,0,0,.127-3.605c-.019-.312-.127-2.175-.757-2.175A.611.611,0,0,0,1367.111,88.2Zm-7.77-.706c-1-.03-1.995-.063-2.992-.087-.485-.013-.971-.03-1.457-.032-.092,0-.2.012-.316.023a1.137,1.137,0,0,1-.768-.084c-.6-.467.369-2.363.661-2.857.1-.17,1.48-1.9,1.585-1.763-.235-.307-.463-.617-.686-.932a.459.459,0,0,1,.167-.63.477.477,0,0,1,.637.166c.214.3.431.6.659.9a6.294,6.294,0,0,1,2.407-.724,5.58,5.58,0,0,1,3.713.874,11.138,11.138,0,0,0,.905-.95.463.463,0,0,1,.658.651,10.8,10.8,0,0,1-.837.886,7.449,7.449,0,0,1,2.042,4,.453.453,0,0,1-.057.332.429.429,0,0,1-.43.327l-.674,0C1362.82,87.6,1361.08,87.549,1359.341,87.5Zm-.1-5.1a5.188,5.188,0,0,0-4.562,4.058c3.344.057,6.685.226,10.031.22-.613-2.381-2.2-4.326-4.756-4.325A5.424,5.424,0,0,0,1359.24,82.394Zm-2.151,1.9a.46.46,0,0,1,0,.921A.46.46,0,0,1,1357.089,84.294Zm5.313-.039a.46.46,0,0,1,0,.921A.46.46,0,0,1,1362.4,84.255Z" fill="#e42626"/>
    <g id="Прямоугольник_2_копия_2" data-name="Прямоугольник 2 копия 2" transform="translate(1340 71)" fill="none" stroke="#e42626" stroke-width="1">
      <rect width="40" height="40" rx="5" stroke="none"/>
      <rect x="0.5" y="0.5" width="39" height="39" rx="4.5" fill="none"/>
    </g>
  </g>
</svg>
