<svg xmlns="http://www.w3.org/2000/svg" width="40" height="40" viewBox="0 0 40 40">
  <g id="apple" transform="translate(-1390 -71)">
    <g id="apple-2" data-name="apple" transform="translate(1401 80)">
      <path id="Shape_1" data-name="Shape 1" d="M9.552,19.523l-.029-.02a1.9,1.9,0,0,0-1.071-.294,2.91,2.91,0,0,0-1.3.336,3.2,3.2,0,0,1-1.554.425,2.692,2.692,0,0,1-1.769-.659A11.031,11.031,0,0,1,.022,11.7a6.832,6.832,0,0,1,1.8-5.167A4.515,4.515,0,0,1,5.933,5.092a7.329,7.329,0,0,1,2.166.77,8.341,8.341,0,0,1,3.462-.87,4.363,4.363,0,0,1,4.063,2.484l.193.368-.345.239C15.453,8.1,13.6,9.4,13.6,10.986a3.18,3.18,0,0,0,1.7,2.458,1.594,1.594,0,0,1,.67,1.029c.362,1.3-2.134,4.464-3.63,5.286l-.037.018A3.05,3.05,0,0,1,11.143,20,2.814,2.814,0,0,1,9.552,19.523Zm.557-.781a1.847,1.847,0,0,0,1.034.3,2.188,2.188,0,0,0,.748-.132c1.541-.866,3.3-3.648,3.146-4.185l-.019-.077a.643.643,0,0,0-.271-.428,4.044,4.044,0,0,1-2.116-3.24,4.866,4.866,0,0,1,1.933-3.413,3.354,3.354,0,0,0-3-1.627,7.534,7.534,0,0,0-3.235.876l-.256.145-.249-.156a6.281,6.281,0,0,0-2.062-.781,3.162,3.162,0,0,0-.611-.061A3.674,3.674,0,0,0,2.525,7.19,5.97,5.97,0,0,0,.992,11.646a10.058,10.058,0,0,0,3.469,6.94,1.735,1.735,0,0,0,1.137.43,2.195,2.195,0,0,0,1.049-.285l.043-.025a3.891,3.891,0,0,1,1.762-.45A2.86,2.86,0,0,1,10.109,18.742ZM7.72,4.991a.473.473,0,0,1-.188-.364c0-.133-.043-3.276,3.956-4.613a.5.5,0,0,1,.417.048.475.475,0,0,1,.223.349c0,.037.375,3.688-4,4.668a.5.5,0,0,1-.108.012A.493.493,0,0,1,7.72,4.991Zm.875-1.034a3.463,3.463,0,0,0,2.539-2.781A4.2,4.2,0,0,0,8.595,3.957Z"/>
    </g>
    <g id="Прямоугольник_2_копия_3" data-name="Прямоугольник 2 копия 3" transform="translate(1390 71)" fill="none" stroke="#e42626" stroke-width="1">
      <rect width="40" height="40" rx="5" stroke="none"/>
      <rect x="0.5" y="0.5" width="39" height="39" rx="4.5" fill="none"/>
    </g>
    <path id="Color_Overlay" data-name="Color Overlay" d="M1410.552,99.523l-.029-.021a1.909,1.909,0,0,0-1.071-.293,2.909,2.909,0,0,0-1.3.336,3.2,3.2,0,0,1-1.554.425,2.694,2.694,0,0,1-1.768-.659,11.03,11.03,0,0,1-3.807-7.607,6.829,6.829,0,0,1,1.8-5.166,4.514,4.514,0,0,1,4.115-1.445,7.325,7.325,0,0,1,2.166.77,8.347,8.347,0,0,1,3.462-.869,4.362,4.362,0,0,1,4.063,2.483l.193.369-.345.238c-.019.012-1.875,1.32-1.868,2.9a3.18,3.18,0,0,0,1.7,2.458,1.591,1.591,0,0,1,.67,1.029c.363,1.3-2.134,4.465-3.629,5.287l-.037.018a3.04,3.04,0,0,1-1.163.223A2.813,2.813,0,0,1,1410.552,99.523Zm.557-.78a1.854,1.854,0,0,0,1.034.3,2.173,2.173,0,0,0,.748-.132c1.541-.866,3.3-3.648,3.146-4.184l-.019-.077a.645.645,0,0,0-.272-.427,4.047,4.047,0,0,1-2.116-3.24,4.866,4.866,0,0,1,1.933-3.413,3.354,3.354,0,0,0-3-1.627,7.535,7.535,0,0,0-3.235.877l-.256.144-.249-.156a6.3,6.3,0,0,0-2.061-.781,3.174,3.174,0,0,0-.611-.061,3.677,3.677,0,0,0-2.624,1.222,5.972,5.972,0,0,0-1.533,4.456,10.056,10.056,0,0,0,3.469,6.94,1.735,1.735,0,0,0,1.137.43,2.2,2.2,0,0,0,1.049-.285l.042-.025a3.9,3.9,0,0,1,1.763-.45A2.861,2.861,0,0,1,1411.109,98.743Zm-2.389-13.752a.472.472,0,0,1-.188-.364c0-.133-.043-3.276,3.956-4.613a.5.5,0,0,1,.418.049.474.474,0,0,1,.222.349c0,.037.375,3.688-4,4.667a.5.5,0,0,1-.406-.088Zm.874-1.033a3.466,3.466,0,0,0,2.54-2.781A4.2,4.2,0,0,0,1409.594,83.957Z" fill="#e42626"/>
  </g>
</svg>
