<svg xmlns="http://www.w3.org/2000/svg" width="20" height="14.011" viewBox="0 0 20 14.011">
  <g id="nArrow" transform="translate(-1500.016 -4518.011)">
    <g id="right-arrow_10_копия_3" data-name="right-arrow (10) копия 3" transform="translate(1500 4518)">
      <path id="Forma_1" data-name="Forma 1" d="M13.484.222a.708.708,0,0,0-1.008.994l5.111,5.092H.722a.7.7,0,0,0-.706.7.709.709,0,0,0,.706.713H17.587l-5.111,5.082a.719.719,0,0,0,0,1,.708.708,0,0,0,1.008,0l6.321-6.3a.69.69,0,0,0,0-.994Z"/>
    </g>
    <path id="Color_Overlay" data-name="Color Overlay" d="M1512.476,4531.811a.718.718,0,0,1,0-1l5.11-5.083h-16.864a.708.708,0,0,1-.706-.712.7.7,0,0,1,.706-.7h16.864l-5.11-5.092a.708.708,0,0,1,1.008-.994l6.321,6.3a.69.69,0,0,1,0,.994l-6.321,6.3a.692.692,0,0,1-.5.211A.718.718,0,0,1,1512.476,4531.811Z" fill="#ccc"/>
  </g>
</svg>
