<svg xmlns="http://www.w3.org/2000/svg" width="20" height="14.011" viewBox="0 0 20 14.011">
  <g id="pArrow" transform="translate(-399.983 -4518.011)">
    <g id="right-arrow_10_копия_2" data-name="right-arrow (10) копия 2" transform="translate(420 4518) rotate(180)">
      <path id="Forma_1" data-name="Forma 1" d="M13.484-.222a.708.708,0,0,1-1.008,0,.707.707,0,0,1,0-.994l5.111-5.092H.722a.7.7,0,0,1-.706-.7.709.709,0,0,1,.706-.713H17.587l-5.111-5.082a.719.719,0,0,1,0-1,.708.708,0,0,1,1.008,0l6.321,6.3a.69.69,0,0,1,0,.994Z"/>
    </g>
    <path id="Color_Overlay" data-name="Color Overlay" d="M406.516,4531.811l-6.321-6.3a.69.69,0,0,1,0-.994l6.321-6.3a.708.708,0,0,1,1.008.994l-5.11,5.092h16.865a.7.7,0,0,1,.705.7.708.708,0,0,1-.705.712H402.413l5.11,5.083a.713.713,0,0,1-.507,1.215A.693.693,0,0,1,406.516,4531.811Z" fill="#ccc"/>
  </g>
</svg>
