<svg xmlns="http://www.w3.org/2000/svg" width="46" height="46" viewBox="0 0 46 46">
  <g id="balance" transform="translate(-1162 -1224)">
    <g id="balance-2" data-name="balance" transform="translate(1162 1224)">
      <path id="Forma_1" data-name="Forma 1" d="M46,27c0-.008,0-.015,0-.023s0-.008,0-.012,0-.031,0-.046,0-.02,0-.031,0-.026-.006-.039,0-.026-.008-.038,0-.02-.008-.03-.008-.03-.013-.044l0-.012L39.1,7.684a3.134,3.134,0,0,0,2.129-2.965.745.745,0,0,0-1.49,0A1.641,1.641,0,0,1,38.1,6.359a14.421,14.421,0,0,1-5.944-1.446A18.258,18.258,0,0,0,25.216,3.19a2.345,2.345,0,0,0-1.471-1.477V.745a.745.745,0,0,0-1.49,0v.967A2.345,2.345,0,0,0,20.784,3.19a18.259,18.259,0,0,0-6.942,1.722A14.42,14.42,0,0,1,7.9,6.359,1.641,1.641,0,0,1,6.259,4.719a.745.745,0,1,0-1.49,0A3.134,3.134,0,0,0,6.9,7.684L.044,26.722l0,.012c0,.014-.009.029-.013.044s-.005.02-.008.03-.005.025-.008.038,0,.026-.006.039,0,.02,0,.031,0,.031,0,.046,0,.008,0,.012S0,26.989,0,27s0,.017,0,.025a4.87,4.87,0,0,0,2.425,3.944A9.948,9.948,0,0,0,7.9,32.488a9.948,9.948,0,0,0,5.472-1.522A4.87,4.87,0,0,0,15.8,27.022c0-.008,0-.017,0-.025s0-.015,0-.023,0-.008,0-.012,0-.031,0-.046,0-.02,0-.031,0-.026-.006-.039,0-.026-.008-.038,0-.02-.008-.03-.008-.03-.013-.044l0-.012L8.944,7.808A17.024,17.024,0,0,0,14.411,6.29a17.075,17.075,0,0,1,6.381-1.609,2.345,2.345,0,0,0,1.463,1.455v21.8a2.332,2.332,0,0,0-.963,3.8,2.326,2.326,0,0,0-.627,1.59v8H17.436A2.337,2.337,0,0,0,15.1,43.665v1.59a.745.745,0,0,0,.745.745H30.153a.745.745,0,0,0,.745-.745v-1.59a2.337,2.337,0,0,0-2.335-2.335H25.335v-8a2.326,2.326,0,0,0-.627-1.59,2.332,2.332,0,0,0-.963-3.8V6.137a2.345,2.345,0,0,0,1.463-1.455A17.079,17.079,0,0,1,31.589,6.29a17.025,17.025,0,0,0,5.467,1.518L30.247,26.722l0,.012c0,.015-.009.029-.013.044s-.005.02-.008.03-.005.025-.008.038,0,.026-.006.039,0,.02,0,.031,0,.031,0,.046,0,.008,0,.012,0,.015,0,.023,0,.017,0,.025a4.87,4.87,0,0,0,2.425,3.944,10.6,10.6,0,0,0,10.943,0A4.87,4.87,0,0,0,46,27.022C46,27.014,46,27.005,46,27ZM7.9,9.3l6.093,16.925H1.805ZM7.9,31c-3.07,0-5.718-1.439-6.293-3.279H14.191C13.617,29.559,10.968,31,7.9,31Zm21.51,12.667v.844H16.592v-.844a.845.845,0,0,1,.844-.844H28.564A.845.845,0,0,1,29.408,43.665ZM22.156,41.33v-8a.844.844,0,0,1,1.689,0v8ZM23,31a.844.844,0,1,1,.844-.844A.845.845,0,0,1,23,31ZM23,4.769h0A.844.844,0,0,1,23,3.08h0a.844.844,0,0,1,0,1.689Zm21.193,21.46H32.008L38.1,9.3ZM38.1,31c-3.07,0-5.718-1.439-6.293-3.279H44.394C43.82,29.559,41.171,31,38.1,31Z"/>
    </g>
    <path id="Color_Overlay" data-name="Color Overlay" d="M1177.846,1270a.745.745,0,0,1-.745-.745v-1.589a2.337,2.337,0,0,1,2.335-2.335h3.228v-8a2.327,2.327,0,0,0,0-3.179,2.338,2.338,0,0,1,1.59-2.212v-21.805a2.345,2.345,0,0,1-1.463-1.454,17.076,17.076,0,0,0-6.381,1.608,17.047,17.047,0,0,1-5.467,1.518l6.809,18.913a.047.047,0,0,1,0,.012.376.376,0,0,1,.014.044l.008.03c0,.013.005.026.007.039s0,.026.006.039,0,.021,0,.031l0,.047v.012c0,.008,0,.015,0,.023s0,.017,0,.026a4.87,4.87,0,0,1-2.425,3.944,10.6,10.6,0,0,1-10.943,0,4.869,4.869,0,0,1-2.426-3.944c0-.009,0-.017,0-.026s0-.014,0-.023,0-.008,0-.012,0-.031,0-.047,0-.021,0-.031,0-.026.006-.039,0-.026.008-.039a.291.291,0,0,1,.007-.03l.013-.044a.047.047,0,0,1,0-.012l6.854-19.038a3.136,3.136,0,0,1-2.129-2.965.745.745,0,0,1,1.49,0,1.641,1.641,0,0,0,1.639,1.639,14.428,14.428,0,0,0,5.944-1.446,18.257,18.257,0,0,1,6.942-1.723,2.342,2.342,0,0,1,1.471-1.477v-.968a.745.745,0,1,1,1.49,0v.968a2.344,2.344,0,0,1,1.471,1.477,18.265,18.265,0,0,1,6.942,1.723,14.424,14.424,0,0,0,5.944,1.446,1.642,1.642,0,0,0,1.64-1.639.745.745,0,1,1,1.49,0,3.135,3.135,0,0,1-2.129,2.965l6.854,19.038a.047.047,0,0,1,0,.012c.005.014.009.029.013.044l.008.03c0,.013.005.026.007.039s0,.026.006.039,0,.021,0,.031l0,.047v.012c0,.008,0,.015,0,.023s0,.017,0,.026a4.871,4.871,0,0,1-2.425,3.944,10.6,10.6,0,0,1-10.943,0,4.869,4.869,0,0,1-2.426-3.944c0-.009,0-.017,0-.026s0-.014,0-.023a.047.047,0,0,1,0-.012c0-.015,0-.031,0-.047s0-.021,0-.031,0-.026.006-.039,0-.026.007-.039l.008-.03c0-.015.008-.03.014-.044a.047.047,0,0,1,0-.012l6.809-18.913a17.047,17.047,0,0,1-5.467-1.518,17.076,17.076,0,0,0-6.381-1.608,2.343,2.343,0,0,1-1.463,1.454v21.805a22.007,22.007,0,0,0,1.589,5.391v8h3.228a2.337,2.337,0,0,1,2.335,2.335v1.589a.745.745,0,0,1-.745.745Zm.745-2.335v.844h12.817v-.844a.845.845,0,0,0-.844-.844h-11.128A.846.846,0,0,0,1178.591,1267.665Zm5.564-10.333v8h1.689v-8a.845.845,0,0,0-1.689,0ZM1200.1,1255c3.07,0,5.719-1.439,6.293-3.279h-12.586C1194.384,1253.559,1197.032,1255,1200.1,1255Zm-15.946-.844a.845.845,0,1,0,.845-.845A.846.846,0,0,0,1184.155,1254.154ZM1169.9,1255c3.07,0,5.719-1.439,6.293-3.279h-12.586C1164.181,1253.559,1166.828,1255,1169.9,1255Zm24.11-4.769h12.186L1200.1,1233.3Zm-30.2,0h12.186L1169.9,1233.3Zm21.2-21.46a.845.845,0,0,0,0-1.689h0a.845.845,0,0,0,0,1.689h0Z" fill="#c20c0c"/>
  </g>
</svg>
