<svg xmlns="http://www.w3.org/2000/svg" width="43.964" height="46" viewBox="0 0 43.964 46">
  <g id="exam" transform="translate(-524 -1224)">
    <g id="exam-2" data-name="exam" transform="translate(524 1224)">
      <path id="Shape_1" data-name="Shape 1" d="M3.925,46A3.885,3.885,0,0,1,0,42.167V3.833A3.884,3.884,0,0,1,3.925,0h25.12A.793.793,0,0,1,29.6.225l7.85,7.667a.753.753,0,0,1,0,1.084.8.8,0,0,1-1.11,0L28.72,1.533H3.925a2.331,2.331,0,0,0-2.355,2.3V42.167a2.331,2.331,0,0,0,2.355,2.3h20.41a.767.767,0,1,1,0,1.534Zm23.55,0a.776.776,0,0,1-.785-.767v-4.6a.759.759,0,0,1,.23-.542L37.206,30.046a3,3,0,0,1,4.25,0l1.57,1.533a2.765,2.765,0,0,1,0,4.151L32.74,45.775a.8.8,0,0,1-.555.225Zm.785-1.533h3.6l-3.6-3.516Zm3.465-2.3,1.245,1.216,6.82-6.661-1.245-1.216Zm-2.355-2.3,1.245,1.216,6.82-6.661-1.245-1.216Zm8.945-8.736-1.015.991,3.6,3.516,1.015-.991a1.27,1.27,0,0,0,0-1.983l-1.57-1.533a1.36,1.36,0,0,0-2.03,0Zm-29.681,7.2a.776.776,0,0,1-.785-.767v-4.6a.776.776,0,0,1,.785-.767h4.71a.776.776,0,0,1,.785.767v4.6a.776.776,0,0,1-.785.767ZM9.42,36.8h3.14V33.733H9.42Zm8.635,1.533a.767.767,0,1,1,0-1.533h6.28a.767.767,0,1,1,0,1.533Zm9.42-4.6a.776.776,0,0,1-.785-.766h0a.776.776,0,0,1,.785-.766h1.57a.776.776,0,0,1,.785.766h0a.776.776,0,0,1-.785.766Zm-9.42,0a.767.767,0,1,1,0-1.533h6.28a.767.767,0,1,1,0,1.533Zm14.13-4.6h-4.71a.767.767,0,1,1,0-1.533h4.71a.767.767,0,1,1,0,1.533Zm-14.13,0a.767.767,0,1,1,0-1.533h6.28a.767.767,0,1,1,0,1.533ZM9.65,28.909,8.08,27.375a.753.753,0,0,1,0-1.084.8.8,0,0,1,1.11,0l.893.872,2.609-3.822a.8.8,0,0,1,1.089-.212A.756.756,0,0,1,14,24.192l-3.14,4.6a.786.786,0,0,1-.575.337.65.65,0,0,1-.078,0A.8.8,0,0,1,9.65,28.909Zm29.6-2.075V12.267H32.186A3.884,3.884,0,0,1,28.26,8.433V4.6a.785.785,0,0,1,1.57,0V8.433a2.331,2.331,0,0,0,2.355,2.3h7.85a.776.776,0,0,1,.785.767V26.833a.785.785,0,0,1-1.57,0Zm-16.485-2.3a.767.767,0,1,1,0-1.533h7.85a.767.767,0,1,1,0,1.533Zm-4.71,0a.767.767,0,1,1,0-1.533h1.57a.767.767,0,1,1,0,1.533Zm7.85-4.6a.767.767,0,1,1,0-1.533h6.28a.767.767,0,1,1,0,1.533Zm-3.14,0h-4.71a.767.767,0,1,1,0-1.533h4.71a.767.767,0,1,1,0,1.533Zm-14.13,0a.776.776,0,0,1-.785-.767v-4.6a.776.776,0,0,1,.785-.767h4.71a.776.776,0,0,1,.785.767v4.6a.776.776,0,0,1-.785.767ZM9.42,18.4h3.14V15.333H9.42Zm8.635-3.067a.767.767,0,1,1,0-1.533h7.85a.767.767,0,1,1,0,1.533Z"/>
    </g>
    <path id="Color_Overlay" data-name="Color Overlay" d="M551.475,1270a.777.777,0,0,1-.785-.767v-4.6a.758.758,0,0,1,.23-.542l10.285-10.045a3,3,0,0,1,4.25,0l1.57,1.534a2.764,2.764,0,0,1,0,4.15l-10.285,10.045a.792.792,0,0,1-.554.225Zm.786-1.534h3.6l-3.6-3.515Zm3.465-2.3,1.245,1.216,6.82-6.661-1.245-1.216Zm-2.355-2.3,1.245,1.216,6.82-6.661-1.245-1.216Zm8.945-8.736-1.015.992,3.6,3.515,1.015-.991a1.27,1.27,0,0,0,0-1.983l-1.57-1.534a1.361,1.361,0,0,0-2.03,0ZM527.925,1270a3.885,3.885,0,0,1-3.925-3.833v-38.334a3.885,3.885,0,0,1,3.925-3.833h25.121a.788.788,0,0,1,.554.225l7.851,7.666a.754.754,0,0,1,0,1.084.8.8,0,0,1-1.111,0l-7.619-7.442h-24.8a2.33,2.33,0,0,0-2.354,2.3v38.334a2.33,2.33,0,0,0,2.354,2.3h20.41a.767.767,0,1,1,0,1.534Zm4.711-7.666a.776.776,0,0,1-.785-.767v-4.6a.775.775,0,0,1,.785-.767h4.71a.775.775,0,0,1,.785.767v4.6a.776.776,0,0,1-.785.767Zm.785-1.534h3.14v-3.067h-3.14Zm8.635,1.533a.767.767,0,1,1,0-1.533h6.279a.767.767,0,1,1,0,1.533Zm9.419-4.6a.775.775,0,0,1-.785-.767h0a.775.775,0,0,1,.785-.766h1.57a.775.775,0,0,1,.785.766h0a.775.775,0,0,1-.785.767Zm-9.419,0a.767.767,0,1,1,0-1.533h6.279a.767.767,0,1,1,0,1.533Zm9.42-4.6a.767.767,0,1,1,0-1.533h4.71a.767.767,0,1,1,0,1.533Zm-9.42,0a.767.767,0,1,1,0-1.533h6.279a.767.767,0,1,1,0,1.533Zm-8.405-.224-1.57-1.534a.754.754,0,0,1,0-1.085.8.8,0,0,1,1.11,0l.894.872,2.608-3.822a.8.8,0,0,1,1.089-.212.756.756,0,0,1,.218,1.064l-3.14,4.6a.787.787,0,0,1-.575.338.776.776,0,0,1-.078,0A.793.793,0,0,1,533.651,1252.909Zm29.6-2.075v-14.566h-7.065a3.884,3.884,0,0,1-3.925-3.834V1228.6a.785.785,0,0,1,1.57,0v3.833a2.331,2.331,0,0,0,2.355,2.3h7.85a.776.776,0,0,1,.785.767v15.333a.785.785,0,0,1-1.57,0Zm-16.485-2.3a.767.767,0,1,1,0-1.533h7.85a.767.767,0,1,1,0,1.533Zm-4.71,0a.767.767,0,1,1,0-1.533h1.57a.767.767,0,1,1,0,1.533Zm7.85-4.6a.767.767,0,1,1,0-1.534h6.28a.767.767,0,1,1,0,1.534Zm-7.85,0a.767.767,0,1,1,0-1.534h4.71a.767.767,0,1,1,0,1.534Zm-9.42,0a.776.776,0,0,1-.785-.767v-4.6a.776.776,0,0,1,.785-.767h4.71a.776.776,0,0,1,.785.767v4.6a.776.776,0,0,1-.785.767Zm.785-1.534h3.14v-3.066h-3.14Zm8.635-3.066a.767.767,0,1,1,0-1.534h7.85a.767.767,0,1,1,0,1.534Z" fill="#c20c0c"/>
  </g>
</svg>
