<svg xmlns="http://www.w3.org/2000/svg" width="39" height="49.001" viewBox="0 0 39 49.001">
  <g id="file" transform="translate(-1164 -948)">
    <g id="file_1_" data-name="file (1)" transform="translate(1164 948)">
      <path id="Forma_1" data-name="Forma 1" d="M4.063,49V44.917H0V0H34.938V11.912L39,16V49Zm1.625-4.084v2.45H37.375V17.15H26V5.717H5.688ZM1.625,43.283H4.063V4.084H27.149l6.164,6.195V1.633H1.625Zm26-27.767h8.6l-1.288-1.3-7.313-7.35ZM11.375,41.65a.817.817,0,0,1,0-1.634H31.687a.817.817,0,0,1,0,1.634Zm0-6.533a.817.817,0,0,1,0-1.633H31.687a.817.817,0,0,1,0,1.633Zm0-6.533a.817.817,0,0,1,0-1.633H31.687a.817.817,0,0,1,0,1.633Zm0-6.533a.817.817,0,0,1,0-1.633H31.687a.817.817,0,0,1,0,1.633Zm0-6.533a.817.817,0,0,1,0-1.633H19.5a.817.817,0,0,1,0,1.633Z"/>
    </g>
    <path id="Color_Overlay" data-name="Color Overlay" d="M1168.063,997v-4.083H1164V948h34.938v11.912L1203,964v33Zm1.625-4.083v2.45h31.687V965.15H1190V953.717h-20.313Zm-4.063-1.633h2.438v-39.2h23.086l6.164,6.195v-8.645h-31.688Zm26-27.767h8.6l-1.288-1.3-7.312-7.35Zm-16.25,26.133a.817.817,0,0,1,0-1.633h20.311a.817.817,0,0,1,0,1.633Zm0-6.533a.817.817,0,0,1,0-1.633h20.311a.817.817,0,0,1,0,1.633Zm0-6.533a.817.817,0,0,1,0-1.634h20.311a.817.817,0,0,1,0,1.634Zm0-6.534a.816.816,0,0,1,0-1.633h20.311a.816.816,0,0,1,0,1.633Zm0-6.533a.817.817,0,0,1,0-1.633h8.124a.817.817,0,0,1,0,1.633Z" fill="#c20c0c"/>
  </g>
</svg>
