<svg xmlns="http://www.w3.org/2000/svg" width="35" height="46.001" viewBox="0 0 35 46.001">
  <g id="law-book" transform="translate(-1164 -1084)">
    <g id="law-book_1_" data-name="law-book (1)" transform="translate(1164 1084)">
      <path id="Shape_1" data-name="Shape 1" d="M2.343,46A2.342,2.342,0,0,1,0,43.665V3.924A2.342,2.342,0,0,1,2.343,1.59H4.786V1.54A1.544,1.544,0,0,1,6.332,0h4.786a1.544,1.544,0,0,1,1.546,1.54v.05H32.657A2.342,2.342,0,0,1,35,3.924V43.665A2.342,2.342,0,0,1,32.657,46ZM1.5,3.924V43.665a.847.847,0,0,0,.848.844H32.657a.847.847,0,0,0,.848-.844h0V3.924a.847.847,0,0,0-.848-.845H12.664v8.793a.748.748,0,0,1-1.082.666L8.725,11.116,5.869,12.539a.748.748,0,0,1-1.082-.666V3.08H2.343A.847.847,0,0,0,1.5,3.924ZM9.059,9.616l2.109,1.05V1.54a.05.05,0,0,0-.05-.05H6.332a.05.05,0,0,0-.05.05v9.127l2.109-1.05a.75.75,0,0,1,.669,0Zm4.452,26.846a.745.745,0,1,1,0-1.49h1.645V29.359a2.339,2.339,0,0,1,1.6-2.212v-6.58H11.068v.686l3.127,7.009v0c.007.017.014.034.02.052l.007.019c0,.014.008.029.012.044s.005.02.008.03,0,.02.005.03.005.03.007.045,0,.014,0,.021,0,.036,0,.055c0,0,0,0,0,0,0,1.726-1.767,3.13-3.939,3.13s-3.939-1.4-3.939-3.13c0,0,0,0,0,0,0-.018,0-.036,0-.055s0-.014,0-.021,0-.03.007-.045,0-.02.005-.03,0-.02.008-.03.007-.029.012-.044l.007-.019c.006-.017.012-.035.02-.051l0,0,3.126-7.009v-.686H8.725a.745.745,0,1,1,0-1.49h8.027V18.059a2.343,2.343,0,1,1,1.5,0v1.017h8.027a.745.745,0,1,1,0,1.49h-.848v.686l3.126,7.009,0,0c.007.017.014.034.02.052l.007.019c0,.014.008.029.012.044s.005.02.008.03,0,.02.005.03.005.03.007.045,0,.014,0,.021,0,.036,0,.055c0,0,0,0,0,0,0,1.726-1.767,3.13-3.939,3.13s-3.939-1.4-3.939-3.13c0,0,0,0,0,0,0-.018,0-.036,0-.055s0-.014,0-.021,0-.03.007-.045,0-.02.005-.03,0-.02.008-.03.007-.029.012-.044l.007-.019c.006-.017.012-.035.02-.051v0l3.127-7.009v-.686H18.248v6.58a2.339,2.339,0,0,1,1.6,2.212v5.613h1.645a.745.745,0,1,1,0,1.49Zm3.141-7.1v5.613h1.7V29.359a.848.848,0,0,0-1.7,0Zm8.027.845a2.79,2.79,0,0,0,2.166-.894H22.513A2.79,2.79,0,0,0,24.68,30.2Zm-14.359,0a2.79,2.79,0,0,0,2.166-.894H8.154A2.79,2.79,0,0,0,10.32,30.2Zm12.319-2.384h4.08l-2.04-4.574Zm-14.359,0h4.08l-2.04-4.574Zm8.372-11.972A.848.848,0,1,0,17.5,15,.847.847,0,0,0,16.652,15.847Z"/>
    </g>
    <path id="Color_Overlay" data-name="Color Overlay" d="M1166.343,1130a2.342,2.342,0,0,1-2.344-2.336v-39.74a2.341,2.341,0,0,1,2.344-2.335h2.443v-.05a1.545,1.545,0,0,1,1.546-1.54h4.786a1.544,1.544,0,0,1,1.545,1.54v.05h19.994a2.341,2.341,0,0,1,2.343,2.335v39.74a2.342,2.342,0,0,1-2.343,2.336Zm-.848-42.076v39.74a.848.848,0,0,0,.848.845h30.314a.847.847,0,0,0,.847-.845v-39.74a.846.846,0,0,0-.847-.844h-19.994v8.792a.748.748,0,0,1-.748.745.751.751,0,0,1-.334-.078l-2.857-1.424-2.857,1.424a.749.749,0,0,1-1.083-.667v-8.792h-2.443A.847.847,0,0,0,1165.5,1087.925Zm7.564,5.692,2.109,1.05v-9.127a.05.05,0,0,0-.05-.05h-4.786a.05.05,0,0,0-.05.05v9.127l2.109-1.05a.753.753,0,0,1,.669,0Zm4.452,26.846a.745.745,0,1,1,0-1.49h1.645v-5.613a2.339,2.339,0,0,1,1.6-2.212v-6.581h-5.684v.687l3.127,7.009,0,0c.007.017.014.034.02.051a.181.181,0,0,1,.007.019c0,.015.008.03.012.044l.008.03c0,.01,0,.021,0,.031s.005.03.007.044,0,.014,0,.022,0,.036,0,.054v0c0,1.725-1.767,3.129-3.939,3.129s-3.938-1.4-3.938-3.129v0c0-.018,0-.036,0-.054s0-.014,0-.022,0-.03.007-.044,0-.021,0-.031l.008-.03c0-.014.007-.029.012-.044a.181.181,0,0,1,.007-.019c.006-.017.013-.034.02-.051,0,0,0,0,0,0l3.127-7.009v-.687h-.848a.745.745,0,1,1,0-1.49h8.027v-1.016a2.343,2.343,0,1,1,1.5,0v1.016h8.027a.745.745,0,1,1,0,1.49h-.848v.687l3.127,7.009s0,0,0,0c.008.017.014.034.021.051s0,.013.006.019.008.03.013.044a.3.3,0,0,1,.007.03c0,.01,0,.021.005.031s.005.03.007.044a.183.183,0,0,0,0,.022.532.532,0,0,1,0,.054v0c0,1.725-1.767,3.129-3.938,3.129s-3.938-1.4-3.938-3.129v0c0-.018,0-.036,0-.054s0-.014,0-.022,0-.03.007-.044,0-.021.005-.031,0-.02.007-.03.007-.029.013-.044l.006-.019c.006-.017.013-.034.021-.051a0,0,0,0,1,0,0l3.127-7.009v-.687h-5.683v6.581a2.339,2.339,0,0,1,1.595,2.212v5.613h1.646a.745.745,0,1,1,0,1.49Zm3.141-7.1v5.613h1.695v-5.613a.847.847,0,0,0-1.695,0Zm8.027.844a2.791,2.791,0,0,0,2.166-.894h-4.333A2.791,2.791,0,0,0,1188.68,1114.2Zm-14.359,0a2.79,2.79,0,0,0,2.166-.894h-4.333A2.793,2.793,0,0,0,1174.32,1114.2Zm12.319-2.384h4.081l-2.04-4.574Zm-14.359,0h4.08l-2.04-4.574Zm8.372-11.972a.847.847,0,1,0,.848-.844A.847.847,0,0,0,1180.652,1099.847Z" fill="#c20c0c"/>
  </g>
</svg>
