<svg xmlns="http://www.w3.org/2000/svg" width="44" height="47" viewBox="0 0 44 47">
  <g id="lawyer" transform="translate(-845 -1220)">
    <g id="lawyer-2" data-name="lawyer" transform="translate(845 1220)">
      <path id="Shape_1" data-name="Shape 1" d="M2.4,47A2.4,2.4,0,0,1,0,44.614V40.12a6.444,6.444,0,0,1,4.91-6.253L7.9,33.124a.762.762,0,0,1,.521-.669L13.1,30.9a2.377,2.377,0,0,1,.7-.712l1.162-.77a14.93,14.93,0,0,1-4.336-10.795c0-.141,0-.282.007-.422a.757.757,0,0,1-.092-.231A82.785,82.785,0,0,1,9.23,7.594a4.808,4.808,0,0,1,1.285-3.62,4.883,4.883,0,0,1,3.553-1.537h.285C16.872.242,20.517,0,22,0a42.117,42.117,0,0,1,5.74.405,7.275,7.275,0,0,1,6.27,7.655c-.28,4.582-.782,8.4-.788,8.433a.764.764,0,0,1-.037.152,11.273,11.273,0,0,1,.2,1.981,14.93,14.93,0,0,1-4.336,10.795l1.162.77a2.376,2.376,0,0,1,.7.712l4.677,1.55a.762.762,0,0,1,.521.669l2.987.742A6.444,6.444,0,0,1,44,40.12v4.495A2.4,2.4,0,0,1,41.6,47ZM36.65,42.99v2.487H41.6a.866.866,0,0,0,.868-.863h0V40.12a4.922,4.922,0,0,0-3.75-4.776l-3.037-.755-.7,2.141a.764.764,0,0,1-.542.5l-2.213.55,1.031,1.537a.758.758,0,0,1,.046.767l-2.754,5.391h4.572V42.99a.766.766,0,0,1,1.531,0Zm-5.625-9.747-2.15,4.278-1.189,2.362-.019.038a.751.751,0,0,1-.026.088,16.245,16.245,0,0,0-.789,5.469h1.978l2.9-5.683-1.385-2.066a.76.76,0,0,1,.452-1.161l2.856-.71.721-2.2-3.14-1.041A2.363,2.363,0,0,1,31.025,33.243ZM24.4,38.93a1.57,1.57,0,0,1-.744,1.332l.666,5.215h1a18.419,18.419,0,0,1,.716-5.506A15.634,15.634,0,0,0,24.4,38.643Zm-3.176,6.548h1.555L22.142,40.5h-.284Zm-3.24-5.522a18.4,18.4,0,0,1,.722,5.522h.974l.666-5.215A1.57,1.57,0,0,1,19.6,38.93v-.287A15.625,15.625,0,0,0,17.983,39.955ZM9.625,33.66l.721,2.2,2.856.71a.76.76,0,0,1,.451,1.161l-1.385,2.066,2.9,5.683h2a16.339,16.339,0,0,0-.78-5.445c-.026-.048-.051-.1-.077-.149l-1.189-2.362-2.15-4.278a2.365,2.365,0,0,1-.211-.623Zm-.743,9.33v2.487h4.572L10.7,40.087a.758.758,0,0,1,.046-.767l1.031-1.538-2.213-.55a.764.764,0,0,1-.542-.5l-.7-2.141-3.037.755a4.921,4.921,0,0,0-3.75,4.776v4.495a.866.866,0,0,0,.868.863H7.35V42.99a.766.766,0,0,1,1.531,0Zm12.251-5.285V38.93a.051.051,0,0,0,.051.051h1.633a.051.051,0,0,0,.051-.051V37.705A9.465,9.465,0,0,0,22,37.3,9.477,9.477,0,0,0,21.132,37.705Zm2.211-1.471a15.59,15.59,0,0,1,3.331,2.257c.542-1.077,1.557-3.1,2.981-5.93a.861.861,0,0,0-.3-1.1l-.728-.483Zm-8.7-4.775a.861.861,0,0,0-.3,1.1c1.394,2.773,2.428,4.832,2.981,5.93a15.586,15.586,0,0,1,3.331-2.257l-5.288-5.258ZM22,35.417l3.88-3.858a9.554,9.554,0,0,1-7.759,0Zm0-4.557c5,0,9.146-4.654,9.77-10.659H29.3v.051a.766.766,0,0,1-1.531,0V18.577h-.919v.863a.766.766,0,0,1-1.531,0v-.863H24.4v1.675a.766.766,0,0,1-1.531,0,.868.868,0,0,0-1.735,0,.766.766,0,0,1-1.531,0V18.577h-.919v.863a.766.766,0,0,1-1.531,0v-.863h-.919v1.675a.766.766,0,0,1-1.531,0V20.2H12.23C12.853,26.205,17,30.86,22,30.86Zm6.534-13.806a.764.764,0,0,1,.766.761v.863h2.5l.051,0c0-.018,0-.036,0-.053a17.381,17.381,0,0,0-1.383-5.735h-.474c-5.713.005-11.119.01-15.939-1.482a14.1,14.1,0,0,0-1.907,7.217c0,.018,0,.036,0,.053l.051,0h2.5v-.863a.764.764,0,0,1,.766-.761h4.9a.764.764,0,0,1,.766.761v.213a2.4,2.4,0,0,1,1.735,0v-.213a.764.764,0,0,1,.766-.761ZM11.635,5.011a3.242,3.242,0,0,0-.878,2.473c.129,1.784.325,4.025.612,6.212a14.71,14.71,0,0,1,1.711-3.611.768.768,0,0,1,.888-.3c4.724,1.6,10.213,1.594,16.024,1.588h.991a.766.766,0,0,1,.707.469c.131.313.266.651.4,1,.135-1.377.281-3.065.392-4.875A5.75,5.75,0,0,0,27.53,1.913,40.568,40.568,0,0,0,22,1.523c-1.344,0-4.7.217-6.822,2.226a.768.768,0,0,1-.528.21h-.582A3.3,3.3,0,0,0,11.635,5.011ZM18.3,26.543a.759.759,0,0,1-.2-1.058.768.768,0,0,1,1.064-.2,5.317,5.317,0,0,0,2.836.7,5.317,5.317,0,0,0,2.836-.7.768.768,0,0,1,1.064.2.759.759,0,0,1-.2,1.058,6.779,6.779,0,0,1-3.7.966A6.779,6.779,0,0,1,18.3,26.543Z"/>
    </g>
    <path id="Color_Overlay" data-name="Color Overlay" d="M847.4,1267a2.4,2.4,0,0,1-2.4-2.386v-4.495a6.443,6.443,0,0,1,4.91-6.253l2.986-.743a.762.762,0,0,1,.522-.669l4.677-1.551a2.367,2.367,0,0,1,.695-.712l1.163-.77a14.93,14.93,0,0,1-4.336-10.795c0-.141,0-.282.007-.422a.758.758,0,0,1-.093-.231,82.774,82.774,0,0,1-1.3-10.381,4.806,4.806,0,0,1,1.285-3.62,4.881,4.881,0,0,1,3.553-1.538h.285c2.519-2.193,6.164-2.435,7.646-2.435a42.086,42.086,0,0,1,5.741.4,7.275,7.275,0,0,1,6.27,7.655c-.281,4.583-.783,8.4-.788,8.434a.707.707,0,0,1-.036.152,11.3,11.3,0,0,1,.2,1.982,14.93,14.93,0,0,1-4.336,10.795l1.162.77a2.38,2.38,0,0,1,.7.712l4.677,1.551a.761.761,0,0,1,.521.669l2.987.743a6.444,6.444,0,0,1,4.91,6.253v4.495a2.4,2.4,0,0,1-2.4,2.386Zm34.251-4.01v2.488H886.6a.866.866,0,0,0,.868-.863v-4.495a4.921,4.921,0,0,0-3.75-4.776l-3.037-.755-.7,2.141a.763.763,0,0,1-.543.5l-2.212.551,1.031,1.537a.758.758,0,0,1,.046.767l-2.754,5.391h4.572v-2.488a.766.766,0,0,1,1.532,0Zm-5.625-9.747-2.15,4.278-1.189,2.363-.019.038a.791.791,0,0,1-.026.087,16.244,16.244,0,0,0-.79,5.469h1.978l2.9-5.683-1.385-2.066a.758.758,0,0,1-.076-.7.765.765,0,0,1,.528-.464l2.857-.709.721-2.2-3.14-1.04A2.366,2.366,0,0,1,876.025,1253.243Zm-6.626,5.687a1.569,1.569,0,0,1-.744,1.332l.666,5.215h1a18.431,18.431,0,0,1,.716-5.505,15.513,15.513,0,0,0-1.635-1.329Zm-3.176,6.547h1.554l-.635-4.974h-.284Zm-3.24-5.522a18.426,18.426,0,0,1,.722,5.522h.974l.666-5.215a1.57,1.57,0,0,1-.743-1.332v-.287A15.505,15.505,0,0,0,862.983,1259.955Zm-8.358-6.295.721,2.2,2.857.71a.759.759,0,0,1,.451,1.16l-1.385,2.066,2.9,5.683h2a16.331,16.331,0,0,0-.78-5.446c-.026-.048-.051-.1-.077-.148l-1.189-2.363c-.716-1.424-1.575-3.134-2.15-4.278a2.37,2.37,0,0,1-.211-.623Zm-.743,9.329v2.488h4.573l-2.754-5.391a.756.756,0,0,1,.046-.767l1.031-1.537-2.213-.551a.762.762,0,0,1-.542-.5l-.7-2.141-3.038.755a4.922,4.922,0,0,0-3.75,4.776v4.495a.867.867,0,0,0,.868.863h4.952v-2.488a.765.765,0,0,1,1.531,0Zm12.251-5.285v1.225a.051.051,0,0,0,.051.05h1.633a.05.05,0,0,0,.05-.05v-1.225a9.348,9.348,0,0,0-.868-.4C866.812,1257.379,866.512,1257.508,866.132,1257.705Zm2.211-1.471a15.658,15.658,0,0,1,3.331,2.257c.542-1.076,1.557-3.1,2.981-5.929a.863.863,0,0,0-.3-1.1l-.729-.482Zm-8.7-4.775a.861.861,0,0,0-.3,1.1c1.393,2.773,2.428,4.831,2.981,5.929a15.635,15.635,0,0,1,3.331-2.257l-5.288-5.258Zm7.359,3.958,3.88-3.858a9.55,9.55,0,0,1-7.759,0Zm0-4.558c5,0,9.147-4.654,9.77-10.659H874.3v.05a.766.766,0,0,1-1.532,0v-1.675h-.919v.863a.765.765,0,0,1-1.531,0v-.863H869.4v1.675a.766.766,0,0,1-1.532,0,.868.868,0,0,0-1.735,0,.765.765,0,0,1-1.531,0v-1.675h-.919v.863a.766.766,0,0,1-1.532,0v-.863h-.919v1.675a.765.765,0,0,1-1.531,0v-.05h-2.471C857.853,1246.206,862,1250.86,867,1250.86Zm6.534-13.806a.764.764,0,0,1,.766.761v.863h2.5l.05,0v-.053a17.373,17.373,0,0,0-1.383-5.736h-.473c-5.713.005-11.12.01-15.939-1.481a14.1,14.1,0,0,0-1.907,7.217c0,.017,0,.035,0,.053l.05,0h2.5v-.863a.764.764,0,0,1,.766-.761h4.9a.764.764,0,0,1,.766.761v.213a2.4,2.4,0,0,1,1.735,0v-.213a.764.764,0,0,1,.766-.761Zm-16.9-12.042a3.238,3.238,0,0,0-.878,2.473c.128,1.785.325,4.025.612,6.212a14.723,14.723,0,0,1,1.711-3.611.767.767,0,0,1,.887-.3c4.724,1.6,10.213,1.594,16.024,1.589h.991a.767.767,0,0,1,.707.469c.13.313.266.651.4,1.005.135-1.377.281-3.064.391-4.875a5.752,5.752,0,0,0-4.953-6.055,40.548,40.548,0,0,0-5.53-.391c-1.344,0-4.7.217-6.822,2.227a.766.766,0,0,1-.528.21h-.581A3.3,3.3,0,0,0,856.635,1225.012Zm6.667,21.532a.758.758,0,0,1-.2-1.057.768.768,0,0,1,1.064-.2,6.079,6.079,0,0,0,5.672,0,.768.768,0,0,1,1.064.2.758.758,0,0,1-.2,1.057,7.555,7.555,0,0,1-7.4,0Z" fill="#c20c0c"/>
  </g>
</svg>
