<svg xmlns="http://www.w3.org/2000/svg" width="44.661" height="42.665" viewBox="0 0 44.661 42.665">
  <g id="phone-call" transform="translate(-843.994 -951.338)">
    <g id="phone-call_3_" data-name="phone-call (3)" transform="translate(844 951)">
      <path id="Forma_1" data-name="Forma 1" d="M-.006,33.524A9.57,9.57,0,1,1,9.563,43,9.535,9.535,0,0,1-.006,33.524Zm1.595,0a7.975,7.975,0,1,0,7.974-7.9A7.946,7.946,0,0,0,1.589,33.524Zm22.65,6a.785.785,0,0,1-.172-1.1.8.8,0,0,1,1.114-.171c5.762,4.177,10.863,4.134,15.164-.125l2.023-2a2.29,2.29,0,0,0,.414-2.722c-1.156-2.162-5.3-4.893-6.8-5.763a2.461,2.461,0,0,0-1.744-.355,1.072,1.072,0,0,0-.666.539l-.083.12a23.469,23.469,0,0,1-2.442,2.614,6.924,6.924,0,0,1-1.862.905,14.164,14.164,0,0,0,4.426,1.231.79.79,0,0,1-.082,1.577c-.027,0-.055,0-.082,0a16.7,16.7,0,0,1-9.25-4.174.774.774,0,0,1-.085-.125c-.035-.033-.072-.064-.106-.1l-8.461-8.382a.672.672,0,0,1-.067-.037,15.076,15.076,0,0,1-5.07-9.218A.8.8,0,0,1,12,12.061a11.113,11.113,0,0,0,1.176,3.856,6.485,6.485,0,0,1,.981-2.106A23.453,23.453,0,0,1,16.8,11.391l.12-.082a1.066,1.066,0,0,0,.545-.661A2.412,2.412,0,0,0,17.1,8.915c-.027-.045-3.186-5.346-5.812-6.723a2.347,2.347,0,0,0-2.748.41l-2.022,2c-4.3,4.265-4.4,9.107-.287,14.8a.786.786,0,0,1-.184,1.1.8.8,0,0,1-1.113-.183C.418,14.077.576,8.255,5.388,3.489l2.022-2A3.94,3.94,0,0,1,12.032.8c3.027,1.585,6.309,7.094,6.447,7.328A3.877,3.877,0,0,1,19,11.072a2.629,2.629,0,0,1-1.233,1.577A26.511,26.511,0,0,0,15.48,14.7c-1.278,1.868-1.128,3.355.5,4.971l9.16,9.074c1.629,1.614,3.129,1.764,5.02.5a26.349,26.349,0,0,0,2.067-2.265,2.645,2.645,0,0,1,1.59-1.22,3.979,3.979,0,0,1,2.969.51c.245.143,5.8,3.394,7.406,6.393a3.845,3.845,0,0,1-.7,4.577l-2.023,2a11.518,11.518,0,0,1-8.219,3.694C30.406,42.933,27.377,41.8,24.239,39.523ZM9.563,34.313a.793.793,0,0,1-.8-.79v-4.74a.8.8,0,0,1,1.595,0v3.95h3.987a.79.79,0,1,1,0,1.58Z"/>
    </g>
    <path id="Color_Overlay" data-name="Color Overlay" d="M843.994,984.523a9.57,9.57,0,1,1,9.569,9.48A9.536,9.536,0,0,1,843.994,984.523Zm1.595,0a7.975,7.975,0,1,0,7.974-7.9A7.947,7.947,0,0,0,845.589,984.523Zm22.65,6a.786.786,0,0,1-.172-1.1.8.8,0,0,1,1.113-.17c5.763,4.177,10.864,4.135,15.165-.125l2.022-2.005a2.289,2.289,0,0,0,.415-2.722c-1.156-2.162-5.3-4.893-6.8-5.764a2.463,2.463,0,0,0-1.743-.355,1.075,1.075,0,0,0-.666.539l-.083.12a23.418,23.418,0,0,1-2.442,2.614,6.928,6.928,0,0,1-1.862.905,14.159,14.159,0,0,0,4.426,1.231.79.79,0,0,1-.082,1.577c-.026,0-.055,0-.082,0a16.7,16.7,0,0,1-9.25-4.174.737.737,0,0,1-.085-.124c-.035-.033-.071-.064-.106-.1l-8.461-8.383a.67.67,0,0,1-.067-.036,15.081,15.081,0,0,1-5.071-9.219.8.8,0,0,1,1.588-.163,11.1,11.1,0,0,0,1.176,3.856,6.5,6.5,0,0,1,.981-2.106,23.4,23.4,0,0,1,2.638-2.419l.12-.082a1.066,1.066,0,0,0,.545-.661,2.41,2.41,0,0,0-.365-1.734c-.027-.045-3.186-5.347-5.812-6.723a2.347,2.347,0,0,0-2.749.409l-2.022,2c-4.3,4.265-4.4,9.106-.287,14.8a.785.785,0,0,1-.184,1.1.8.8,0,0,1-1.112-.183c-4.513-6.25-4.355-12.073.457-16.838l2.022-2a3.939,3.939,0,0,1,4.622-.689c3.027,1.586,6.309,7.095,6.448,7.328a3.877,3.877,0,0,1,.52,2.948,2.623,2.623,0,0,1-1.233,1.576,26.479,26.479,0,0,0-2.288,2.051c-1.277,1.868-1.128,3.355.5,4.971l9.159,9.075c1.629,1.614,3.129,1.763,5.02.5a26.351,26.351,0,0,0,2.066-2.265,2.649,2.649,0,0,1,1.59-1.22,3.98,3.98,0,0,1,2.969.51c.245.143,5.8,3.394,7.406,6.394a3.844,3.844,0,0,1-.7,4.576l-2.023,2a11.515,11.515,0,0,1-8.218,3.695C874.406,993.933,871.377,992.8,868.239,990.523Zm-14.676-5.209a.793.793,0,0,1-.8-.79v-4.74a.8.8,0,0,1,1.595,0v3.95h3.987a.79.79,0,1,1,0,1.58Z" fill="#c20c0c"/>
  </g>
</svg>
