<svg xmlns="http://www.w3.org/2000/svg" width="46.018" height="46.009" viewBox="0 0 46.018 46.009">
  <g id="professor-consultation" transform="translate(-520.991 -947)">
    <g id="professor-consultation-2" data-name="professor-consultation" transform="translate(521 947)">
      <path id="Forma_1" data-name="Forma 1" d="M44.94,46.008c-.424,0-.447-.252-.614-.667l-2.742-6.618c-1.37-3.347-3.249-5.262-5.441-5.658L34.98,35.928,36.357,42.8a1.056,1.056,0,0,1-.393.943l-1.72,1.37a1.074,1.074,0,0,1-.669.234h-.61a1.074,1.074,0,0,1-.669-.234l-1.72-1.37a1.055,1.055,0,0,1-.393-.943l1.3-6.875L30.4,32.991c-2.192.4-4.147,2.387-5.519,5.738l-2.632,6.618c-.222.542-.542.8-1.089.583a1.057,1.057,0,0,1-.588-1.38l2.708-6.618c1.175-2.87,3.259-6.661,7.846-6.846a1.085,1.085,0,0,1,.123-.007h4.05a1.085,1.085,0,0,1,.123.007c4.588.185,6.672,3.976,7.846,6.846l2.669,6.623a1.056,1.056,0,0,1-.6,1.377A1.074,1.074,0,0,1,44.94,46.008ZM31.993,42.459l1.277,1.166,1.277-1.166-1-5.523h-.557Zm.91-7.642h.735l.342-1.618H32.56ZM1.06,46.008a1.073,1.073,0,0,1-.4-.078A1.057,1.057,0,0,1,.07,44.55l2.668-6.52c1.188-2.9,3.319-6.761,8.091-6.761h3.539a7.446,7.446,0,0,1,6.293,3.371c.026.037.148.2.3.4.511.69.646.875.691.942a1.054,1.054,0,0,1-.3,1.468,1.074,1.074,0,0,1-1.477-.293c-.057-.082-.433-.59-.636-.864-.159-.215-.29-.391-.315-.427a5.768,5.768,0,0,0-2.528-2.112l-2.928,3.978a1.074,1.074,0,0,1-1.727,0L8.808,33.454c-1.668.671-3.253,2.589-4.392,5.373l-2.668,6.52C1.579,45.758,1.482,46.008,1.06,46.008Zm9.746-12.62,1.793,2.3,1.793-2.3Zm6.1,12.619H5.544a1.064,1.064,0,0,1-1.069-1.06c0-.585.479-.834,1.069-.834H16.91c.59,0,1.069.249,1.069.834A1.064,1.064,0,0,1,16.91,46.008Zm21.22-7.713a1.064,1.064,0,0,1-1.069-1.06V37.1a1.069,1.069,0,0,1,2.138,0v.133A1.064,1.064,0,0,1,38.13,38.295ZM12.6,29.714a5.372,5.372,0,0,1-1.52-10.539l.033-.01a5.449,5.449,0,0,1,1.1-.191h.049l.053,0h.068a.049.049,0,0,0,.012,0q.1,0,.2,0h.055A5.377,5.377,0,1,1,12.6,29.714Zm-1.7-8.544c-.825.592-2.045,2.081-2.045,3.167a4.233,4.233,0,0,0,3.74,3.784c2.218.075,3.435-1.877,3.793-3.291A6.142,6.142,0,0,1,10.9,21.171Zm1.83-.088A3.272,3.272,0,0,0,15.6,23.009,3.292,3.292,0,0,0,12.734,21.082Zm20.535,8.387a5.442,5.442,0,1,1,0-10.884,5.537,5.537,0,0,1,1.059.1l.067.014a5.438,5.438,0,0,1-1.126,10.769Zm-1.9-8.479a4.108,4.108,0,0,0-1.68,3.037c0,.075-.149.149-.143.223a3.916,3.916,0,0,0,3.721,3.325,3.812,3.812,0,0,0,3.654-3.548A3.951,3.951,0,0,0,34.6,20.752a6.275,6.275,0,0,1-1.652,1.636,1.073,1.073,0,0,1-1.455-.405A2.079,2.079,0,0,1,31.371,20.99Zm-23.418-2.6a1.074,1.074,0,0,1-.54-.145,1.058,1.058,0,0,1-.529-.914V7.781a3.384,3.384,0,0,1,3.395-3.366h3.792a1.064,1.064,0,0,1,1.069,1.06c0,.585-.479.684-1.069.684H10.279a1.913,1.913,0,0,0-1.56,1.622l.076,8.04,1.7-.893a1.076,1.076,0,0,1,.522-.135H20.29a1,1,0,0,1,1.069.985.947.947,0,0,1-1.069.909h-9L8.475,18.254A1.075,1.075,0,0,1,7.953,18.389Zm25.322-2.2a1.073,1.073,0,0,1-.79-.346L29.2,12.272H20.553a3.384,3.384,0,0,1-3.394-3.366V3.366A3.384,3.384,0,0,1,20.553,0h10.4a3.384,3.384,0,0,1,3.395,3.366V15.135a1.06,1.06,0,0,1-.683.988A1.073,1.073,0,0,1,33.275,16.194ZM20.553,1.744a1.913,1.913,0,0,0-1.56,1.622V9.132c0,.687.867,1.246,1.56,1.246h9.114a1.073,1.073,0,0,1,.79.346l2.053,2.2-.076-9.56a1.835,1.835,0,0,0-1.484-1.622Zm-6.7,8.346H11.918a.947.947,0,0,1-1.069-.909c0-.585.479-.759,1.069-.759h1.939c.59,0,1.069.174,1.069.759A.947.947,0,0,1,13.857,10.09Zm15.226-4.2H24.671A.947.947,0,0,1,23.6,4.977a.947.947,0,0,1,1.069-.909h4.411a.947.947,0,0,1,1.069.909A.947.947,0,0,1,29.083,5.886Z"/>
    </g>
    <path id="Color_Overlay" data-name="Color Overlay" d="M565.326,992.342l-2.742-6.618c-1.37-3.347-3.248-5.262-5.441-5.658l-1.164,2.862,1.377,6.875a1.055,1.055,0,0,1-.392.943l-1.72,1.371a1.074,1.074,0,0,1-.67.233h-.61a1.076,1.076,0,0,1-.67-.233l-1.72-1.371a1.053,1.053,0,0,1-.392-.943l1.3-6.875-1.088-2.937c-2.192.4-4.147,2.387-5.519,5.738l-2.633,6.618c-.222.542-.542.8-1.089.583a1.057,1.057,0,0,1-.589-1.381l2.708-6.618c1.174-2.869,3.259-6.661,7.846-6.845a1.116,1.116,0,0,1,.123-.007h4.05a1.114,1.114,0,0,1,.123.007c4.588.185,6.672,3.976,7.846,6.845l2.668,6.623a1.057,1.057,0,0,1-.6,1.377,1.084,1.084,0,0,1-.4.076C565.516,993.009,565.493,992.756,565.326,992.342Zm-12.334-2.883,1.277,1.166,1.277-1.166-1-5.522h-.558Zm.91-7.642h.734l.342-1.618H553.56ZM521.659,992.93a1.056,1.056,0,0,1-.589-1.381l2.668-6.52c1.189-2.9,3.319-6.761,8.092-6.761h3.539a7.445,7.445,0,0,1,6.293,3.371l.3.4c.511.69.646.875.691.942a1.053,1.053,0,0,1-.3,1.468,1.073,1.073,0,0,1-1.477-.292c-.058-.082-.434-.59-.636-.864-.159-.215-.29-.391-.315-.427a5.764,5.764,0,0,0-2.528-2.112l-2.928,3.978a1.073,1.073,0,0,1-1.726,0l-2.928-4.278c-1.669.67-3.253,2.589-4.393,5.372l-2.668,6.52c-.168.412-.266.662-.688.662A1.069,1.069,0,0,1,521.659,992.93Zm11.94-10.244,1.793-2.3h-3.586Zm-7.055,10.321a1.064,1.064,0,0,1-1.069-1.059c0-.586.479-.834,1.069-.834H537.91c.59,0,1.068.248,1.068.834a1.064,1.064,0,0,1-1.068,1.059Zm31.517-8.772V984.1a1.069,1.069,0,0,1,2.138,0v.133a1.069,1.069,0,0,1-2.138,0Zm-29.885-12.9a5.393,5.393,0,0,1,3.9-5.161l.033-.01a5.5,5.5,0,0,1,1.1-.192h.049l.052,0h.081c.067,0,.132,0,.2,0h.056a5.386,5.386,0,0,1,5.3,4.484,5.313,5.313,0,0,1,.076.893,5.424,5.424,0,0,1-10.847,0Zm1.683,0a4.234,4.234,0,0,0,3.74,3.784c2.218.075,3.434-1.876,3.793-3.29a6.144,6.144,0,0,1-5.489-3.66C531.079,968.763,529.859,970.252,529.859,971.337Zm6.741-1.328a3.292,3.292,0,0,0-2.866-1.927A3.292,3.292,0,0,0,536.6,970.009Zm12.181,1.018a5.472,5.472,0,0,1,5.489-5.442,5.556,5.556,0,0,1,1.059.1l.067.013a5.448,5.448,0,1,1-6.615,5.327Zm1.911,0c0,.075-.148.148-.143.223a3.915,3.915,0,0,0,3.721,3.325,3.812,3.812,0,0,0,3.654-3.548,3.951,3.951,0,0,0-2.323-3.275,6.278,6.278,0,0,1-1.652,1.636,1.074,1.074,0,0,1-1.455-.405,2.081,2.081,0,0,1-.122-.994A4.107,4.107,0,0,0,550.691,971.027Zm-22.279-5.783a1.059,1.059,0,0,1-.528-.914v-9.548a3.384,3.384,0,0,1,3.395-3.365h3.792a1.064,1.064,0,0,1,1.068,1.059c0,.585-.478.684-1.068.684h-3.792a1.914,1.914,0,0,0-1.561,1.622l.076,8.041,1.7-.893a1.07,1.07,0,0,1,.523-.135h9.274a1,1,0,0,1,1.069.985.947.947,0,0,1-1.069.909H532.3l-2.82,1.567a1.076,1.076,0,0,1-1.063-.011Zm25.073-2.395-3.29-3.577h-8.642a3.384,3.384,0,0,1-3.395-3.366v-5.54A3.384,3.384,0,0,1,541.553,947h10.4a3.384,3.384,0,0,1,3.394,3.366v11.768a1.059,1.059,0,0,1-.682.988,1.073,1.073,0,0,1-1.175-.274Zm-13.492-12.483v5.765c0,.688.867,1.247,1.56,1.247h9.113a1.076,1.076,0,0,1,.79.346l2.052,2.2-.076-9.56a1.834,1.834,0,0,0-1.484-1.622h-10.4A1.912,1.912,0,0,0,539.994,950.366Zm-7.076,6.724a.947.947,0,0,1-1.069-.909c0-.585.479-.76,1.069-.76h1.939c.59,0,1.069.175,1.069.76a.947.947,0,0,1-1.069.909Zm12.753-4.2a.921.921,0,1,1,0-1.819h4.412a.921.921,0,1,1,0,1.819Z" fill="#c20c0c"/>
  </g>
</svg>
