<svg xmlns="http://www.w3.org/2000/svg" width="39" height="45" viewBox="0 0 39 45">
  <g id="tactics" transform="translate(-524 -1085)">
    <g id="tactics-2" data-name="tactics" transform="translate(524 1085)">
      <path id="Forma_1" data-name="Forma 1" d="M2.3,45A2.313,2.313,0,0,1,0,42.676V39.555a3.908,3.908,0,0,1,2.845-3.769l6.032-1.665,1.289-1.956V30.983a9.835,9.835,0,0,1-3.127-7.268l-.417-6.758a6.263,6.263,0,0,1,1.671-4.692,6.113,6.113,0,0,1,4.524-1.98H17.2V2.324A2.313,2.313,0,0,1,19.5,0H36.7A2.313,2.313,0,0,1,39,2.324V19.731a2.313,2.313,0,0,1-2.3,2.324H24.245l-.1,1.66a9.836,9.836,0,0,1-3.127,7.268v1.182L22.3,34.121l6.032,1.665a3.908,3.908,0,0,1,2.845,3.769v3.121A2.313,2.313,0,0,1,28.883,45Zm23.41-3.907v2.423h3.177a.837.837,0,0,0,.831-.841V39.555a2.424,2.424,0,0,0-1.765-2.338l-5.787-1.6-2.306,3.5a1.507,1.507,0,0,1-1.111.675c-.05.005-.1.007-.151.007a1.494,1.494,0,0,1-.853-.268,2.333,2.333,0,0,1-.6.894l.626,3.089h6.468V41.093a.733.733,0,1,1,1.466,0Zm-10.8,2.423h1.37l-.5-2.48c-.06,0-.121.008-.182.008s-.122,0-.182-.008ZM6.94,41.093v2.423h6.468l.626-3.089a2.333,2.333,0,0,1-.6-.894,1.494,1.494,0,0,1-.853.268q-.075,0-.151-.007a1.507,1.507,0,0,1-1.111-.675l-2.306-3.5-5.787,1.6a2.424,2.424,0,0,0-1.765,2.338v3.121a.837.837,0,0,0,.831.841H5.474V41.093a.733.733,0,1,1,1.466,0Zm7.82-2.858v.484a.831.831,0,1,0,1.662,0v-.484L15.59,37.4Zm2.913-.832.889.9a.045.045,0,0,0,.039.014.045.045,0,0,0,.036-.022l2.328-3.533-.84-1.275L16.676,36.4l1,1.008Zm-7.457-2.64L12.543,38.3a.049.049,0,0,0,.075.008l.889-.9h0l1-1.008-3.448-2.908Zm5.375.617,3.9-3.291a7.829,7.829,0,0,1-7.806,0ZM10.4,19.679A6.674,6.674,0,0,0,8.5,23.72c.016,4.375,3.188,7.928,7.086,7.928s7.086-3.572,7.086-7.962a10.808,10.808,0,0,0-1.886-5.434C17.2,19.515,11.718,19.662,10.4,19.679ZM24.516,15.7a6.462,6.462,0,0,1,.044,1.253l-.223,3.614H36.7a.837.837,0,0,0,.831-.841V2.324a.837.837,0,0,0-.831-.841H19.5a.837.837,0,0,0-.831.841v7.969a6.11,6.11,0,0,1,4.22,1.972,6.3,6.3,0,0,1,1.174,1.8L32.587,5.44h-2.14a.742.742,0,0,1,0-1.484h3.91a.737.737,0,0,1,.733.742V8.654a.733.733,0,1,1-1.466,0V6.489ZM9.36,13.282a4.784,4.784,0,0,0-1.276,3.584l.193,3.121a6.976,6.976,0,0,1,1.387-1.63.727.727,0,0,1,.453-.159c.069,0,6.99-.019,10.672-1.528a.728.728,0,0,1,.855.233A13.952,13.952,0,0,1,22.959,19.1l.138-2.232a4.784,4.784,0,0,0-1.276-3.584,4.669,4.669,0,0,0-3.455-1.512h-5.55A4.669,4.669,0,0,0,9.36,13.282ZM17.673,37.4ZM33.839,17.882,32.4,16.428l-1.437,1.454a.727.727,0,0,1-1.037,0,.748.748,0,0,1,0-1.049l1.436-1.453-1.436-1.453a.748.748,0,0,1,0-1.049.727.727,0,0,1,1.037,0L32.4,14.33l1.437-1.453a.727.727,0,0,1,1.037,0,.748.748,0,0,1,0,1.049l-1.436,1.453,1.436,1.453a.748.748,0,0,1,0,1.049.727.727,0,0,1-1.037,0Zm-8.6-8.7L23.8,7.725,22.364,9.178a.727.727,0,0,1-1.037,0,.748.748,0,0,1,0-1.049l1.436-1.453L21.328,5.222a.748.748,0,0,1,0-1.049.727.727,0,0,1,1.037,0L23.8,5.627l1.437-1.454a.727.727,0,0,1,1.037,0,.748.748,0,0,1,0,1.049L24.838,6.676l1.436,1.454a.748.748,0,0,1,0,1.049.727.727,0,0,1-1.037,0Z"/>
    </g>
    <path id="Color_Overlay" data-name="Color Overlay" d="M526.3,1130a2.314,2.314,0,0,1-2.3-2.325v-3.121a3.909,3.909,0,0,1,2.845-3.769l6.032-1.664,1.289-1.956v-1.183a9.834,9.834,0,0,1-3.127-7.267l-.418-6.758a6.264,6.264,0,0,1,1.671-4.692,6.112,6.112,0,0,1,4.523-1.98H541.2v-7.961a2.313,2.313,0,0,1,2.3-2.324h17.2a2.312,2.312,0,0,1,2.3,2.324v17.407a2.312,2.312,0,0,1-2.3,2.324H548.245l-.1,1.661a9.838,9.838,0,0,1-3.128,7.268v1.182l1.289,1.956,6.032,1.664a3.909,3.909,0,0,1,2.845,3.769v3.121a2.314,2.314,0,0,1-2.3,2.325Zm23.41-3.907v2.423h3.177a.837.837,0,0,0,.831-.841v-3.121a2.422,2.422,0,0,0-1.765-2.337l-5.787-1.6-2.3,3.5a1.509,1.509,0,0,1-1.112.675,1.424,1.424,0,0,1-.151.007,1.491,1.491,0,0,1-.853-.268,2.33,2.33,0,0,1-.6.894l.626,3.089h6.468v-2.423a.733.733,0,1,1,1.466,0Zm-10.8,2.423h1.371l-.5-2.48c-.06,0-.121.008-.182.008s-.122,0-.183-.008Zm-7.965-2.423v2.423h6.468l.626-3.089a2.34,2.34,0,0,1-.6-.894,1.493,1.493,0,0,1-.853.268c-.049,0-.1,0-.15-.007a1.509,1.509,0,0,1-1.112-.675l-2.306-3.5-5.787,1.6a2.423,2.423,0,0,0-1.765,2.337v3.121a.837.837,0,0,0,.831.841h3.177v-2.423a.733.733,0,1,1,1.466,0Zm7.82-2.857v.483a.831.831,0,1,0,1.661,0v-.483l-.831-.841Zm1.916-1.84,1,1.008.89.9a.046.046,0,0,0,.039.014.044.044,0,0,0,.036-.022l2.328-3.533-.841-1.275Zm-6.46-1.633,2.327,3.533a.043.043,0,0,0,.036.021.045.045,0,0,0,.04-.013l.889-.9h0l1-1.007-3.448-2.908Zm5.375.617,3.9-3.29a7.829,7.829,0,0,1-7.806,0Zm-5.191-15.7a6.674,6.674,0,0,0-1.894,4.041c.016,4.375,3.188,7.928,7.086,7.928s7.087-3.571,7.087-7.961a10.809,10.809,0,0,0-1.886-5.434C541.2,1104.515,535.719,1104.662,534.4,1104.679Zm14.117-3.974a6.522,6.522,0,0,1,.044,1.253l-.223,3.615H560.7a.837.837,0,0,0,.831-.841v-17.407a.837.837,0,0,0-.831-.841H543.5a.837.837,0,0,0-.831.841v7.969a6.109,6.109,0,0,1,4.219,1.972,6.286,6.286,0,0,1,1.174,1.8l8.525-8.627h-2.139a.742.742,0,0,1,0-1.483h3.91a.737.737,0,0,1,.733.742v3.956a.733.733,0,1,1-1.466,0v-2.165Zm-15.156-2.423a4.786,4.786,0,0,0-1.276,3.584l.193,3.121a6.992,6.992,0,0,1,1.388-1.631.725.725,0,0,1,.453-.158c.069,0,6.989-.019,10.672-1.528a.729.729,0,0,1,.855.234,14.035,14.035,0,0,1,1.315,2.194l.138-2.232a4.783,4.783,0,0,0-1.276-3.584,4.669,4.669,0,0,0-3.455-1.513h-5.55A4.669,4.669,0,0,0,533.36,1098.282Zm24.479,4.6-1.436-1.453-1.437,1.453a.727.727,0,0,1-1.036,0,.749.749,0,0,1,0-1.049l1.436-1.453-1.436-1.454a.747.747,0,0,1,0-1.048.726.726,0,0,1,1.036,0l1.437,1.453,1.436-1.453a.727.727,0,0,1,1.037,0,.747.747,0,0,1,0,1.048l-1.436,1.454,1.436,1.453a.749.749,0,0,1,0,1.049.728.728,0,0,1-1.037,0Zm-8.6-8.7-1.437-1.453-1.436,1.453a.728.728,0,0,1-1.037,0,.749.749,0,0,1,0-1.049l1.437-1.453-1.437-1.454a.749.749,0,0,1,0-1.049.728.728,0,0,1,1.037,0l1.436,1.454,1.437-1.454a.727.727,0,0,1,1.036,0,.747.747,0,0,1,0,1.049l-1.436,1.454,1.436,1.453a.747.747,0,0,1,0,1.049.727.727,0,0,1-1.036,0Z" fill="#c20c0c"/>
  </g>
</svg>
