<svg xmlns="http://www.w3.org/2000/svg" width="46" height="46" viewBox="0 0 46 46">
  <g id="work-communication" transform="translate(-842 -1083)">
    <g id="work-communication-2" data-name="work-communication" transform="translate(842 1083)">
      <path id="Forma_1" data-name="Forma 1" d="M38.818,19.841a4.8,4.8,0,1,0-4.8-4.8A4.8,4.8,0,0,0,38.818,19.841Zm0-7.6a3.045,3.045,0,0,1,2.8,2.8,3.045,3.045,0,0,1-2.8,2.8,3.045,3.045,0,0,1-2.8-2.8,2.622,2.622,0,0,1,.015-.283A3.052,3.052,0,0,1,38.818,12.245Zm-31.635,7.6a4.8,4.8,0,1,0-4.8-4.8A4.8,4.8,0,0,0,7.183,19.841Zm0-7.6a3.045,3.045,0,0,1,2.8,2.8,2.974,2.974,0,0,1-2.8,2.722,2.974,2.974,0,0,1-2.8-2.722A3.045,3.045,0,0,1,7.183,12.245Zm4.383,25.348a1.151,1.151,0,0,1-1.151,1.151H6.784V44H8.218c.636,0,1.151.214,1.151.85A1.151,1.151,0,0,1,8.218,46H3.349A1.151,1.151,0,0,1,2.2,44.848c0-.636.515-.85,1.151-.85H4.782V38.744h-3.6a1.172,1.172,0,0,1-.639-.176A1.15,1.15,0,0,1,0,37.593c0-.011,0-.023,0-.034V26.647A1.151,1.151,0,0,1,1.152,25.5c.636,0,.926.515.926,1.151v10.1h8.337C11.051,36.743,11.566,36.958,11.566,37.593Zm29.055-3.081-7.749.025-2.941,10.6a1.132,1.132,0,0,1-.064.183,1.153,1.153,0,0,1-1.05.681H25.788a1.151,1.151,0,0,1-1.151-1.151c0-.636.515-.549,1.151-.549h2.453l2.871-10.918a1.151,1.151,0,0,1,1.106-.843l7.627-.024L39.771,23.2h-.823l-3.995,5.565h1.183c.636,0,1.527.515,1.527,1.151s-.515.925-1.151.925H28.769a1.151,1.151,0,0,1-1.084-.764L25.118,22.9a1.151,1.151,0,0,1,.7-1.471c.6-.213.957.1,1.171.7l2.37,6.635h3.153l4.9-6.929a1.151,1.151,0,0,1,.94-.486h2.27A1.151,1.151,0,0,1,41.773,22.5c0,.011,0,.023,0,.034V33.361a1.147,1.147,0,0,1-.314.79h-.009a1.149,1.149,0,0,1-.438.284h0A1.138,1.138,0,0,1,40.621,34.512ZM46,37.593a1.152,1.152,0,0,1-1.179,1.151h-3.6v5.179h1.433c.636,0,1.151.29,1.151.925A1.151,1.151,0,0,1,42.652,46H37.783a1.151,1.151,0,0,1-1.151-1.151c0-.636.515-.925,1.151-.925h1.434V38.744H35.585a1.151,1.151,0,0,1-1.151-1.151c0-.636.515-.85,1.151-.85h8.488v-10.1c0-.636.14-1.151.775-1.151A1.151,1.151,0,0,1,46,26.647V37.559C46,37.57,46,37.582,46,37.593ZM21.363,44.849A1.151,1.151,0,0,1,20.212,46H17.184a1.151,1.151,0,0,1-1.114-.864l-2.942-10.6-7.749-.025a1.152,1.152,0,0,1-.386-.066h0a1.151,1.151,0,0,1-.438-.284H4.541a1.147,1.147,0,0,1-.314-.79V22.5h0a1.151,1.151,0,0,1,1.151-1.151h2.27a1.151,1.151,0,0,1,.94.486l4.9,6.929h3.154l2.37-6.635c.214-.6.572-.91,1.171-.7a1.15,1.15,0,0,1,.7,1.471L18.54,29.926a1.151,1.151,0,0,1-1.084.764H9.489a1.032,1.032,0,0,1-1.151-1c0-.636.515-.925,1.151-.925h1.183L7.053,23.65H6.53v8.564l7.477.024a1.152,1.152,0,0,1,1.106.843L18.06,44h2.152C20.847,44,21.363,44.213,21.363,44.849ZM29.77,10.28a1.151,1.151,0,0,0,2-.775V2.519A2.523,2.523,0,0,0,29.252,0H23.131a2.523,2.523,0,0,0-2.52,2.519V5.808a2.523,2.523,0,0,0,2.52,2.52h4.858Zm-7.233-4.1V2.144a.221.221,0,0,1,.218-.218h6.872a.224.224,0,0,1,.218.218V6.911l-.122-.134a1.152,1.152,0,0,0-.851-.375H22.756A.221.221,0,0,1,22.537,6.184Zm.376,4.636a1.151,1.151,0,0,1-1.151,1.151H17.483l-1.541.863a1.151,1.151,0,0,1-1.714-1V6.162a2.523,2.523,0,0,1,2.521-2.52H18.1a1.151,1.151,0,0,1,1.151,1.151c0,.636-.816.85-1.452.85H16.448a.221.221,0,0,0-.218.218v4.3l.089-.05a1.152,1.152,0,0,1,.563-.147h4.881C22.4,9.969,22.913,10.184,22.913,10.819Z"/>
    </g>
    <path id="Color_Overlay" data-name="Color Overlay" d="M882.193,1129h-2.41a1.151,1.151,0,0,1-1.151-1.15c0-.635.516-.925,1.151-.925h1.434v-5.18h-3.631a1.15,1.15,0,0,1-1.151-1.151c0-.635.515-.85,1.151-.85h8.488v-10.1c0-.635.14-1.151.775-1.151a1.151,1.151,0,0,1,1.151,1.151v10.911c0,.012,0,.023,0,.034a1.151,1.151,0,0,1-1.179,1.151h-3.6v5.18h1.434c.636,0,1.151.29,1.151.925a1.15,1.15,0,0,1-1.151,1.15h-2.459Zm-11.413,0h-2.992a1.152,1.152,0,0,1-1.151-1.151c0-.635.516-.55,1.151-.55h2.453l2.871-10.917a1.151,1.151,0,0,1,1.106-.843l7.628-.023-.076-9.316h-.823l-3.994,5.565h1.183c.636,0,1.527.515,1.527,1.15s-.516.925-1.151.925h-7.743a1.15,1.15,0,0,1-1.084-.763l-2.568-7.174a1.15,1.15,0,0,1,.7-1.471c.6-.213.957.1,1.171.7l2.37,6.635h3.154l4.9-6.929a1.151,1.151,0,0,1,.94-.486h2.27a1.151,1.151,0,0,1,1.152,1.15c0,.012,0,.023,0,.034v10.828a1.148,1.148,0,0,1-.314.79h-.006v0h0a1.149,1.149,0,0,1-.437.283h-.005a1.135,1.135,0,0,1-.385.067l-7.748.024-2.942,10.6a1.056,1.056,0,0,1-.064.184,1.151,1.151,0,0,1-1.05.68Zm-11.56,0h-.037a1.151,1.151,0,0,1-1.05-.682,1.125,1.125,0,0,1-.064-.181l-2.941-10.6-7.749-.024a1.145,1.145,0,0,1-.386-.067h0a1.151,1.151,0,0,1-.438-.284h-.008a1.144,1.144,0,0,1-.314-.79V1105.5a1.151,1.151,0,0,1,1.151-1.151h2.27a1.151,1.151,0,0,1,.94.487l4.9,6.928h3.154l2.371-6.635c.213-.6.571-.91,1.17-.7a1.151,1.151,0,0,1,.7,1.471l-2.343,7.023a1.152,1.152,0,0,1-1.084.764h-7.967a1.032,1.032,0,0,1-1.151-1c0-.635.515-.925,1.151-.925h1.183l-3.619-5.114h-.523v8.564l7.477.024a1.152,1.152,0,0,1,1.106.842L860.06,1127h2.152c.635,0,1.151.214,1.151.85a1.152,1.152,0,0,1-1.151,1.151Zm-11.461,0h-2.41a1.151,1.151,0,0,1-1.151-1.15c0-.635.516-.85,1.151-.85h1.434v-5.254h-3.6a1.17,1.17,0,0,1-.639-.175,1.15,1.15,0,0,1-.539-.976v-10.946a1.151,1.151,0,0,1,1.151-1.151c.636,0,.926.516.926,1.151v10.1h8.337c.636,0,1.151.214,1.151.85a1.15,1.15,0,0,1-1.151,1.151h-3.631V1127h1.434c.636,0,1.151.215,1.151.85a1.15,1.15,0,0,1-1.151,1.15h-2.459Zm28.259-30.956a4.8,4.8,0,1,1,4.8,4.8A4.8,4.8,0,0,1,876.018,1098.042Zm2.017-.283a2.477,2.477,0,0,0-.015.283,2.807,2.807,0,1,0,.015-.283Zm-33.652.283a4.8,4.8,0,1,1,4.8,4.8A4.8,4.8,0,0,1,844.383,1098.042Zm2,0a2.8,2.8,0,0,0,5.6,0,2.8,2.8,0,0,0-5.6,0Zm10.413-2.219a1.152,1.152,0,0,1-.57-.994v-5.667a2.524,2.524,0,0,1,2.521-2.52H860.1a1.151,1.151,0,0,1,1.151,1.151c0,.635-.815.851-1.452.851h-1.352a.221.221,0,0,0-.219.218v4.3l.09-.05a1.152,1.152,0,0,1,.563-.148h4.881c.635,0,1.151.215,1.151.851a1.151,1.151,0,0,1-1.151,1.15h-4.28l-1.541.864a1.153,1.153,0,0,1-1.145-.011Zm14.973-2.542-1.782-1.953h-4.857a2.523,2.523,0,0,1-2.52-2.519v-3.289a2.523,2.523,0,0,1,2.52-2.52h6.121a2.523,2.523,0,0,1,2.52,2.52v6.986a1.151,1.151,0,0,1-2,.775Zm-7.233-8.137v4.04a.221.221,0,0,0,.219.218h6.117a1.153,1.153,0,0,1,.851.376l.122.133v-4.767a.223.223,0,0,0-.218-.218h-6.872A.221.221,0,0,0,864.537,1085.144Z" fill="#c20c0c"/>
  </g>
</svg>
